# xmcd CD database file
#
# Track frame offsets:
#	150
#	21426
#	37573
#	52623
#	68931
#	81126
#	98023
#	111551
#	125423
#	141083
#	153936
#	172456
#	184892
#	196858
#
# Disc length: 2808 seconds
#
# Revision: 1
# Processed by: cddbd v1.5.2PL0 Copyright (c) Steve Scherf et al.
# Submitted via: CDex 1.51
#
DISCID=b90af60e
DTITLE=Kenny Rogers - Always and Forever
DYEAR=1999
DGENRE=Country
TTITLE0=Always and Forever
TTITLE1=Evergreen
TTITLE2=Misty
TTITLE3=The Wind Beneath My Wings
TTITLE4=It Had to Be You
TTITLE5=Stardust
TTITLE6=I Will Always Love You
TTITLE7=You Send Me
TTITLE8=Unchained Melody
TTITLE9=As Time Goes By
TTITLE10=My Funny Valentine
TTITLE11=Somewhere My Love
TTITLE12=Love Is a Many Splendored Thing
TTITLE13=Love Me Tender
EXTD=YEAR: 1999
EXTT0=
EXTT1=
EXTT2=
EXTT3=
EXTT4=
EXTT5=
EXTT6=
EXTT7=
EXTT8=
EXTT9=
EXTT10=
EXTT11=
EXTT12=
EXTT13=
PLAYORDER=
